<svg xmlns="http://www.w3.org/2000/svg" viewBox="0 0 76.306 100.241" enable-background="new 0 0 76.306 100.241"><path fill="#238C9B" d="M68.268 78.524c5.019-6.446 8.022-14.541 8.038-23.344.002-1.435-.08-2.848-.231-4.24l-8.265 14.822 2.578 1.295c-5.7 8.977-15.045 15.4-25.949 17.204l-1.922-52.459 21.115.039.011-6.359-21.196-.04.01-5.126c3.745-1.629 6.368-5.354 6.377-9.699.009-5.852-4.728-10.607-10.581-10.617-5.853-.011-10.606 4.726-10.616 10.579-.007 4.346 2.602 8.08 6.342 9.723l-.011 5.126-21.197-.038-.01 6.359 21.114.039-2.112 52.452c-10.899-1.845-20.221-8.303-25.887-17.298l2.584-1.287-8.212-14.853c-.157 1.392-.245 2.805-.248 4.24-.016 8.803 2.958 16.908 7.953 23.371l-.011-.001.058.06c2.012 2.594 4.347 4.921 6.951 6.92 6.797 6.383 16.962 14.838 23.119 14.85 6.158.012 16.356-8.41 23.178-14.768 2.609-1.988 4.952-4.305 6.973-6.889l.059-.063-.012.002zm-36.392-67.937c.006-3.512 2.857-6.353 6.369-6.347 3.514.005 6.354 2.857 6.349 6.37-.007 3.512-2.858 6.353-6.372 6.347-3.512-.006-6.354-2.858-6.346-6.37z"/><path fill="#176973" d="M31.876 10.587c.006-3.512 2.857-6.353 6.369-6.347l.008-4.24c-5.853-.011-10.606 4.726-10.616 10.579-.007 4.346 2.602 8.08 6.342 9.723l-.011 5.126-21.197-.038-.01 6.359 21.114.039-2.112 52.452c-10.899-1.845-20.221-8.303-25.887-17.298l2.584-1.287-8.212-14.853c-.157 1.392-.245 2.805-.248 4.24-.016 8.803 2.958 16.908 7.953 23.371l-.011-.001.058.06c2.012 2.594 4.347 4.921 6.951 6.92 6.797 6.383 16.962 14.838 23.119 14.85l.151-83.284c-3.511-.007-6.353-2.859-6.345-6.371z"/><polygon fill="#176973" points="38.195,31.794 42.517,31.802 38.229,36.074 36.069,36.071 36.072,33.911"/><path fill="#176973" d="M38.215 21.196c-1.509-.002-2.939-.326-4.236-.895l-.012 5.742 2.735.005 5.754-5.731c-1.3.565-2.733.881-4.241.879z"/><polygon fill="#176973" points="67.81,65.762 72.047,65.77 70.388,67.057"/><path fill="#176973" d="M44.385 12.183l3.253 3.265c.542-1.047.919-2.189 1.086-3.405l-.426-.427-3.865.385-.048.182z"/><line stroke="#ADACA4" stroke-width="3" stroke-linecap="round" stroke-miterlimit="10" x1="48.833" y1="10.618" x2="44.348" y2="10.61" fill="none"/></svg>