<svg xmlns="http://www.w3.org/2000/svg" viewBox="0 0 111 110" enable-background="new 0 0 111 110"><polygon fill="#D77228" points="22.19,0 0,22.19 29.587,22.19 55.477,48.08 81.365,22.19 110.953,22.19 88.763,0 70.271,0 55.477,14.794 40.683,0"/><polygon fill="#DBA925" points="40.683,0 29.587,11.095 81.365,11.095 70.271,0"/><polygon fill="#DBA925" points="62.873,11.095 75.818,24.04 75.818,11.095"/><polygon fill="#DBA925" points="48.08,11.095 35.135,24.04 35.135,11.095"/><rect x="47.631" y="6.948" transform="matrix(-.707 .707 -.707 -.707 105.166 -13.972)" fill="#DBA925" width="15.691" height="15.692"/><polygon fill="#D77228" points="22.19,61.92 0,84.11 29.587,84.11 55.477,110 81.365,84.11 110.953,84.11 88.763,61.92 70.271,61.92 55.477,76.714 40.683,61.92"/><polygon fill="#DBA925" points="40.683,61.92 29.587,73.016 81.365,73.016 70.271,61.92"/><rect x="47.631" y="68.868" transform="matrix(-.707 .707 -.707 -.707 148.948 91.734)" fill="#DBA925" width="15.691" height="15.692"/><polygon fill="#D77228" points="85.064,80.412 85.064,95.206 70.271,80.412"/><polygon fill="#D77228" points="25.889,80.412 25.889,95.206 40.683,80.412"/></svg>