<svg xmlns="http://www.w3.org/2000/svg" viewBox="0 0 112 228" enable-background="new 0 0 112 228"><path fill="#B54323" d="M27.719 164s-18 20-14 64h-2s-30-46 6-102h10v38z"/><path fill="#B54323" d="M84.281 164s18 20 14 64h2s30-46-6-102h-10v38z"/><path fill="#F1EEE0" d="M29.393 40c-9.253 25.893-14.431 66.535-1.393 128h56c13.038-61.465 7.86-102.107-1.394-128h-53.213z"/><path fill="#ADACA4" d="M56 40v128h28c13.038-61.465 7.86-102.107-1.394-128h-26.606z"/><path fill="#873119" d="M29.395 40h53.211c-10.618-29.713-26.606-40-26.606-40s-15.988 10.287-26.605 40z"/><path fill="#B54323" d="M56 0s-15.988 10.287-26.605 40h26.605v-40z"/><path fill="#873119" d="M26.814 48h58.371c-.396-1.37-.805-2.699-1.225-4h-55.921c-.42 1.301-.828 2.63-1.225 4z"/><path fill="#B54323" d="M56 44h-27.961c-.42 1.301-.828 2.63-1.225 4h29.186v-4z"/><circle fill="#ADACA4" cx="56" cy="99" r="12"/><path fill="#171C21" d="M68 99c0-6.627-5.373-12-12-12v24c6.627 0 12-5.373 12-12z"/><circle fill="#F1EEE0" cx="56" cy="97" r="12"/><rect x="36" y="168" fill="#ADACA4" width="40" height="12"/><path fill="#171C21" d="M85.352 161.352l-25.352-25.352-2 32h26c.477-2.246.924-4.457 1.352-6.648z"/><circle fill="#238C9B" cx="56" cy="97" r="8"/><path fill="#176973" d="M56 90c4.249 0 7.715 3.315 7.975 7.5l.025-.5c0-4.418-3.582-8-8-8s-8 3.582-8 8l.025.5c.26-4.185 3.726-7.5 7.975-7.5z"/><g fill="#ADACA4"><circle cx="56.08" cy="107" r="1"/><circle cx="56.08" cy="87" r="1"/><circle cx="66.08" cy="97" r="1"/><circle cx="46.08" cy="97" r="1"/></g><g fill="#ADACA4"><circle cx="49.009" cy="104.071" r="1"/><circle cx="63.151" cy="89.929" r="1"/><circle cx="63.151" cy="104.071" r="1"/><circle cx="49.009" cy="89.929" r="1"/></g><rect x="60" y="168" fill="#171C21" width="4" height="12"/><rect x="36" y="168" fill="#171C21" width="16" height="2"/><rect x="60" y="168" fill="#171C21" width="16" height="2"/><line stroke="#171C21" stroke-width=".5" stroke-miterlimit="10" x1="38" y1="168" x2="38" y2="180" fill="none"/><line stroke="#171C21" stroke-width=".5" stroke-miterlimit="10" x1="40" y1="168" x2="40" y2="180" fill="none"/><line stroke="#171C21" stroke-width=".5" stroke-miterlimit="10" x1="42" y1="168" x2="42" y2="180" fill="none"/><line stroke="#171C21" stroke-width=".5" stroke-miterlimit="10" x1="44" y1="168" x2="44" y2="180" fill="none"/><line stroke="#171C21" stroke-width=".5" stroke-miterlimit="10" x1="46" y1="168" x2="46" y2="180" fill="none"/><line stroke="#171C21" stroke-width=".5" stroke-miterlimit="10" x1="48" y1="168" x2="48" y2="180" fill="none"/><line stroke="#171C21" stroke-width=".5" stroke-miterlimit="10" x1="50" y1="168" x2="50" y2="180" fill="none"/><line stroke="#171C21" stroke-width=".5" stroke-miterlimit="10" x1="66" y1="168" x2="66" y2="180" fill="none"/><line stroke="#171C21" stroke-width=".5" stroke-miterlimit="10" x1="68" y1="168" x2="68" y2="180" fill="none"/><line stroke="#171C21" stroke-width=".5" stroke-miterlimit="10" x1="70" y1="168" x2="70" y2="180" fill="none"/><line stroke="#171C21" stroke-width=".5" stroke-miterlimit="10" x1="72" y1="168" x2="72" y2="180" fill="none"/><line stroke="#171C21" stroke-width=".5" stroke-miterlimit="10" x1="74" y1="168" x2="74" y2="180" fill="none"/><rect x="52" y="48" fill="#171C21" width="4" height="4"/><rect x="44" y="48" fill="#171C21" width="4" height="4"/><rect x="36" y="48" fill="#171C21" width="4" height="4"/><rect x="28" y="48" fill="#171C21" width="4" height="4"/><path fill="#171C21" d="M28 56v-4h-2.273c-.336 1.305-.662 2.636-.976 4h3.249z"/><rect x="32" y="52" fill="#171C21" width="4" height="4"/><rect x="40" y="52" fill="#171C21" width="4" height="4"/><rect x="48" y="52" fill="#171C21" width="4" height="4"/><rect x="52" y="56" fill="#171C21" width="4" height="4"/><rect x="44" y="56" fill="#171C21" width="4" height="4"/><rect x="36" y="56" fill="#171C21" width="4" height="4"/><rect x="28" y="56" fill="#171C21" width="4" height="4"/><rect x="56" y="52" fill="#171C21" width="4" height="4"/><rect x="60" y="48" fill="#171C21" width="4" height="4"/><rect x="60" y="56" fill="#171C21" width="4" height="4"/><rect x="64" y="52" fill="#171C21" width="4" height="4"/><rect x="68" y="48" fill="#171C21" width="4" height="4"/><rect x="68" y="56" fill="#171C21" width="4" height="4"/><rect x="72" y="52" fill="#171C21" width="4" height="4"/><rect x="76" y="48" fill="#171C21" width="4" height="4"/><rect x="76" y="56" fill="#171C21" width="4" height="4"/><rect x="80" y="52" fill="#171C21" width="4" height="4"/><path fill="#171C21" d="M85.186 48h-1.186v4h2.273c-.352-1.362-.712-2.701-1.087-4z"/><path fill="#171C21" d="M88 59.442c-.241-1.168-.492-2.314-.751-3.442h-3.249v4h4v-.558z"/><path fill="#B54323" d="M23.125 64h65.75c-.241-1.357-.492-2.694-.756-4h-64.238c-.264 1.306-.515 2.643-.756 4z"/><path fill="#873119" d="M56 64h32.875c-.241-1.357-.492-2.694-.756-4h-32.119v4z"/><path fill="#873119" d="M27.182 164c.269 1.328.532 2.651.818 4h56c.286-1.349.55-2.672.818-4h-57.636z"/><rect x="50" y="160" fill="#171C21" width="4" height="4"/><rect x="42" y="160" fill="#171C21" width="4" height="4"/><rect x="34" y="160" fill="#171C21" width="4" height="4"/><path fill="#171C21" d="M30 160h-3.607c.254 1.322.518 2.656.789 4h2.818v-4z"/><path fill="#171C21" d="M85.607 160h-3.607v4h2.818c.272-1.344.536-2.678.789-4z"/><rect x="74" y="160" fill="#171C21" width="4" height="4"/><rect x="66" y="160" fill="#171C21" width="4" height="4"/><rect x="58" y="160" fill="#171C21" width="4" height="4"/><rect x="62" y="156" fill="#171C21" width="4" height="4"/><rect x="70" y="156" fill="#171C21" width="4" height="4"/><rect x="78" y="156" fill="#171C21" width="4" height="4"/><rect x="30" y="156" fill="#171C21" width="4" height="4"/><rect x="38" y="156" fill="#171C21" width="4" height="4"/><rect x="46" y="156" fill="#171C21" width="4" height="4"/><path fill="#873119" d="M87.062 152h-62.124c.227 1.327.451 2.651.696 4h60.73c.246-1.349.471-2.673.698-4z"/><rect x="52" y="136" fill="#B54323" width="8" height="56"/><path fill="#171C21" d="M21.014 120.896l70.485-7.832c.052-1.024.087-2.026.127-3.033l-70.84 7.871c.067.987.15 1.994.228 2.994z"/><line stroke="#ADACA4" stroke-width="3" stroke-linecap="round" stroke-miterlimit="10" x1="92" y1="110" x2="20" y2="118" fill="none"/><path fill="#171C21" d="M90.721 124.119l-69.672-2.763c.078.997.163 2.001.253 3.013l69.142 2.742c.098-1.006.19-2.002.277-2.992z"/><line stroke="#ADACA4" stroke-width="3" stroke-linecap="round" stroke-miterlimit="10" x1="20.16" y1="121.666" x2="91.626" y2="124.5" fill="none"/></svg>