<svg xmlns="http://www.w3.org/2000/svg" viewBox="0 0 442 180" enable-background="new 0 0 442 180"><polygon fill="#36A883" points="40,144 28,156 52,156"/><polygon fill="#36A883" points="40,150 26,164 54,164"/><polygon fill="#36A883" points="40,156 24,172 56,172"/><polygon fill="#36A883" points="40,132 34,138 46,138"/><polygon fill="#36A883" points="40,136 32,144 48,144"/><polygon fill="#36A883" points="40,140 30,150 50,150"/><polygon fill="#238163" points="40,132 40,138 46,138"/><polygon fill="#238163" points="38,138 36,140 40,140 40,144 48,144 42,138"/><polygon fill="#238163" points="40,144 36,144 34,146 40,146 40,150 50,150 44,144"/><polygon fill="#238163" points="40,150 34,150 32,152 40,152 40,156 52,156 46,150"/><polygon fill="#238163" points="46,156 34,156 32,158 40,158 40,164 54,164"/><polygon fill="#238163" points="48,164 32,164 30,166 40,166 40,172 56,172"/><rect x="38" y="172" fill="#D77228" width="4" height="8"/><polygon fill="#A0551F" points="38,172 40,174 40,180 42,180 42,172"/><polygon fill="#3F436C" points="280,120 340,180 280,180"/><polygon fill="#52588A" points="220,180 280,120 280,180"/><rect x="60" y="24" fill="#ADACA4" width="40" height="30"/><rect x="100" fill="#ADACA4" width="16" height="148"/><rect x="64" fill="#ADACA4" width="16" height="56"/><line stroke="#171C21" stroke-width=".5" stroke-miterlimit="10" x1="102" x2="102" y2="148" fill="none"/><line stroke="#171C21" stroke-width=".5" stroke-miterlimit="10" x1="104" x2="104" y2="148" fill="none"/><line stroke="#171C21" stroke-width=".5" stroke-miterlimit="10" x1="106" x2="106" y2="148" fill="none"/><line stroke="#171C21" stroke-width=".5" stroke-miterlimit="10" x1="108" x2="108" y2="148" fill="none"/><line stroke="#171C21" stroke-width=".5" stroke-miterlimit="10" x1="110" x2="110" y2="148" fill="none"/><line stroke="#171C21" stroke-width=".5" stroke-miterlimit="10" x1="112" x2="112" y2="148" fill="none"/><line stroke="#171C21" stroke-width=".5" stroke-miterlimit="10" x1="114" x2="114" y2="148" fill="none"/><rect x="16" y="24" fill="#ADACA4" width="56" height="30"/><polygon fill="#F1EEE0" points="96,142 84,150 84,148 96,140"/><polygon fill="#F1EEE0" points="84,142 96,150 96,148 84,140"/><rect x="84" y="148" fill="#F1EEE0" width="12" height="4"/><line stroke="#D1CFC4" stroke-width=".5" stroke-miterlimit="10" x1="84" y1="150" x2="96" y2="150" fill="none"/><polygon fill="#F1EEE0" points="96,132 84,140 84,138 96,130"/><polygon fill="#F1EEE0" points="84,132 96,140 96,138 84,130"/><rect x="84" y="138" fill="#F1EEE0" width="12" height="4"/><line stroke="#D1CFC4" stroke-width=".5" stroke-miterlimit="10" x1="84" y1="140" x2="96" y2="140" fill="none"/><rect x="48" y="148" fill="#ADACA4" width="192" height="32"/><line stroke="#171C21" stroke-width=".5" stroke-miterlimit="10" x1="60" y1="152" x2="60" y2="180" fill="none"/><line stroke="#171C21" stroke-width=".5" stroke-miterlimit="10" x1="160" y1="152" x2="160" y2="180" fill="none"/><line stroke="#171C21" stroke-width=".5" stroke-miterlimit="10" x1="180" y1="152" x2="180" y2="180" fill="none"/><line stroke="#171C21" stroke-width=".5" stroke-miterlimit="10" x1="200" y1="152" x2="200" y2="180" fill="none"/><line stroke="#171C21" stroke-width=".5" stroke-miterlimit="10" x1="220" y1="152" x2="220" y2="180" fill="none"/><rect x="48" y="148" fill="#F1EEE0" width="192" height="4"/><rect x="40" y="60" fill="#F1EEE0" width="8" height="120"/><rect x="72" y="60" fill="#F1EEE0" width="8" height="120"/><rect x="48" y="80" fill="#F1EEE0" width="24" height="4"/><rect x="48" y="100" fill="#F1EEE0" width="24" height="4"/><rect x="48" y="120" fill="#F1EEE0" width="24" height="4"/><rect x="48" y="140" fill="#F1EEE0" width="24" height="4"/><rect x="48" y="160" fill="#F1EEE0" width="24" height="4"/><polygon fill="#ADACA4" points="48,80 48,84 52,84"/><rect x="48" y="60" fill="#ADACA4" width="24" height="4"/><polygon fill="#ADACA4" points="48,100 48,104 52,104"/><polygon fill="#ADACA4" points="48,120 48,124 52,124"/><polygon fill="#ADACA4" points="48,140 48,144 52,144"/><polygon fill="#ADACA4" points="48,160 48,164 52,164"/><rect y="54" fill="#F1EEE0" width="120" height="4"/><rect x="4" y="58" fill="#ADACA4" width="112" height="2"/><rect x="80" y="148" fill="#ADACA4" width="2" height="4"/><rect x="48" y="148" fill="#ADACA4" width="2" height="4"/><rect x="80" y="152" fill="#171C21" width="160" height="2"/><rect x="48" y="152" fill="#171C21" width="24" height="2"/><line stroke="#171C21" stroke-width=".5" stroke-miterlimit="10" x1="140" y1="152" x2="140" y2="180" fill="none"/><line stroke="#171C21" stroke-width=".5" stroke-miterlimit="10" x1="120" y1="152" x2="120" y2="180" fill="none"/><line stroke="#171C21" stroke-width=".5" stroke-miterlimit="10" x1="100" y1="152" x2="100" y2="180" fill="none"/><rect x="40" y="30" fill="#F1EEE0" width="40" height="24"/><rect x="80" fill="#F1EEE0" width="2" height="148"/><rect x="98" fill="#F1EEE0" width="2" height="148"/><rect x="82" fill="#ADACA4" width="2" height="148"/><rect x="96" fill="#ADACA4" width="2" height="148"/><polygon fill="#F1EEE0" points="96,2 84,10 84,8 96,0"/><polygon fill="#F1EEE0" points="96,12 84,20 84,18 96,10"/><polygon fill="#F1EEE0" points="84,12 96,20 96,18 84,10"/><rect x="84" y="18" fill="#F1EEE0" width="12" height="4"/><polygon fill="#F1EEE0" points="84,2 96,10 96,8 84,0"/><rect x="84" y="8" fill="#F1EEE0" width="12" height="4"/><rect x="84" fill="#F1EEE0" width="12" height="2"/><line stroke="#D1CFC4" stroke-width=".5" stroke-miterlimit="10" x1="84" y1="10" x2="96" y2="10" fill="none"/><line stroke="#D1CFC4" stroke-width=".5" stroke-miterlimit="10" x1="84" y1="20" x2="96" y2="20" fill="none"/><polygon fill="#F1EEE0" points="96,22 84,30 84,28 96,20"/><polygon fill="#F1EEE0" points="84,22 96,30 96,28 84,20"/><rect x="84" y="28" fill="#F1EEE0" width="12" height="4"/><polygon fill="#F1EEE0" points="96,32 84,40 84,38 96,30"/><polygon fill="#F1EEE0" points="84,32 96,40 96,38 84,30"/><rect x="84" y="38" fill="#F1EEE0" width="12" height="4"/><polygon fill="#F1EEE0" points="96,42 84,50 84,48 96,40"/><polygon fill="#F1EEE0" points="84,42 96,50 96,48 84,40"/><rect x="84" y="48" fill="#F1EEE0" width="12" height="4"/><polygon fill="#F1EEE0" points="96,52 84,60 84,58 96,50"/><polygon fill="#F1EEE0" points="84,52 96,60 96,58 84,50"/><rect x="84" y="58" fill="#F1EEE0" width="12" height="4"/><polygon fill="#F1EEE0" points="96,62 84,70 84,68 96,60"/><polygon fill="#F1EEE0" points="84,62 96,70 96,68 84,60"/><rect x="84" y="68" fill="#F1EEE0" width="12" height="4"/><polygon fill="#F1EEE0" points="96,72 84,80 84,78 96,70"/><polygon fill="#F1EEE0" points="84,72 96,80 96,78 84,70"/><rect x="84" y="78" fill="#F1EEE0" width="12" height="4"/><polygon fill="#F1EEE0" points="96,82 84,90 84,88 96,80"/><polygon fill="#F1EEE0" points="84,82 96,90 96,88 84,80"/><rect x="84" y="88" fill="#F1EEE0" width="12" height="4"/><polygon fill="#F1EEE0" points="96,92 84,100 84,98 96,90"/><polygon fill="#F1EEE0" points="84,92 96,100 96,98 84,90"/><rect x="82" y="96" fill="#F1EEE0" width="12" height="4"/><polygon fill="#F1EEE0" points="96,102 84,110 84,108 96,100"/><polygon fill="#F1EEE0" points="84,102 96,110 96,108 84,100"/><rect x="84" y="108" fill="#F1EEE0" width="12" height="4"/><polygon fill="#F1EEE0" points="96,112 84,120 84,118 96,110"/><polygon fill="#F1EEE0" points="84,112 96,120 96,118 84,110"/><rect x="84" y="118" fill="#F1EEE0" width="12" height="4"/><polygon fill="#F1EEE0" points="96,122 84,130 84,128 96,120"/><polygon fill="#F1EEE0" points="84,122 96,130 96,128 84,120"/><rect x="84" y="128" fill="#F1EEE0" width="12" height="4"/><line stroke="#D1CFC4" stroke-width=".5" stroke-miterlimit="10" x1="84" y1="130" x2="96" y2="130" fill="none"/><line stroke="#D1CFC4" stroke-width=".5" stroke-miterlimit="10" x1="84" y1="120" x2="96" y2="120" fill="none"/><line stroke="#D1CFC4" stroke-width=".5" stroke-miterlimit="10" x1="84" y1="110" x2="96" y2="110" fill="none"/><line stroke="#D1CFC4" stroke-width=".5" stroke-miterlimit="10" x1="84" y1="100" x2="96" y2="100" fill="none"/><line stroke="#D1CFC4" stroke-width=".5" stroke-miterlimit="10" x1="84" y1="90" x2="96" y2="90" fill="none"/><line stroke="#D1CFC4" stroke-width=".5" stroke-miterlimit="10" x1="84" y1="80" x2="96" y2="80" fill="none"/><line stroke="#D1CFC4" stroke-width=".5" stroke-miterlimit="10" x1="84" y1="70" x2="96" y2="70" fill="none"/><line stroke="#D1CFC4" stroke-width=".5" stroke-miterlimit="10" x1="84" y1="60" x2="96" y2="60" fill="none"/><line stroke="#D1CFC4" stroke-width=".5" stroke-miterlimit="10" x1="84" y1="50" x2="96" y2="50" fill="none"/><line stroke="#D1CFC4" stroke-width=".5" stroke-miterlimit="10" x1="84" y1="40" x2="96" y2="40" fill="none"/><line stroke="#D1CFC4" stroke-width=".5" stroke-miterlimit="10" x1="84" y1="30" x2="96" y2="30" fill="none"/><polygon fill="#171C21" points="40,30 40,54 16,54"/><rect x="56" y="40" fill="#ADACA4" width="8" height="14"/><line stroke="#ADACA4" stroke-miterlimit="10" x1="40" y1="34" x2="80" y2="34" fill="none"/><rect x="64" y="6" fill="#F1EEE0" width="16" height="2"/><rect x="64" y="8" fill="#171C21" width="16" height="2"/><line stroke="#171C21" stroke-width=".5" stroke-miterlimit="10" x1="66" y1="8" x2="66" y2="30" fill="none"/><line stroke="#171C21" stroke-width=".5" stroke-miterlimit="10" x1="68" y1="8" x2="68" y2="30" fill="none"/><line stroke="#171C21" stroke-width=".5" stroke-miterlimit="10" x1="70" y1="8" x2="70" y2="30" fill="none"/><line stroke="#171C21" stroke-width=".5" stroke-miterlimit="10" x1="72" y1="8" x2="72" y2="30" fill="none"/><line stroke="#171C21" stroke-width=".5" stroke-miterlimit="10" x1="74" y1="8" x2="74" y2="30" fill="none"/><line stroke="#171C21" stroke-width=".5" stroke-miterlimit="10" x1="76" y1="8" x2="76" y2="30" fill="none"/><line stroke="#171C21" stroke-width=".5" stroke-miterlimit="10" x1="78" y1="8" x2="78" y2="30" fill="none"/><polygon fill="#171C21" points="64,24 64,30 58,30"/><polygon fill="#ADACA4" points="40,60 48,68 48,60"/><polygon fill="#ADACA4" points="72,60 80,68 80,60"/><rect x="48" y="154" fill="#171C21" width="2" height="6"/><rect x="48" y="164" fill="#171C21" width="2" height="16"/><rect x="80" y="152" fill="#171C21" width="2" height="28"/><rect x="48" y="164" fill="#171C21" width="24" height="2"/><polygon fill="#F1EEE0" points="124,146 128,142 232,142 236,146"/><rect x="124" y="146" fill="#ADACA4" width="112" height="2"/><polygon fill="#171C21" points="116,58 100,74 100,58"/><polygon fill="#36A883" points="240,152 228,164 252,164"/><polygon fill="#36A883" points="240,158 226,172 254,172"/><polygon fill="#36A883" points="240,140 234,146 246,146"/><polygon fill="#36A883" points="240,144 232,152 248,152"/><polygon fill="#36A883" points="240,148 230,158 250,158"/><polygon fill="#238163" points="240,140 240,146 246,146"/><polygon fill="#238163" points="238,146 236,148 240,148 240,152 248,152 242,146"/><polygon fill="#238163" points="240,152 236,152 234,154 240,154 240,158 250,158 244,152"/><polygon fill="#238163" points="240,158 234,158 232,160 240,160 240,164 252,164 246,158"/><polygon fill="#238163" points="246,164 234,164 232,166 240,166 240,172 254,172"/><polygon fill="#52588A" points="280,180 360,100 360,180"/><polygon fill="#3F436C" points="440,180 360,100 360,180"/><polygon fill="#F1EEE0" points="360,100 346,114 350,114 354,118 360,112"/><polygon fill="#ADACA4" points="360,112 366,118 368,116 372,116 374,114 360,100"/><polygon fill="#F1EEE0" points="280,120 272,128 278,128 280,130"/><polygon fill="#ADACA4" points="280,130 284,130 287,133 290,130 280,120"/><rect x="238" y="172" fill="#D77228" width="4" height="8"/><polygon fill="#A0551F" points="238,172 240,174 240,180 242,180 242,172"/><polygon fill="#36A883" points="428,152 416,164 440,164"/><polygon fill="#36A883" points="428,158 414,172 442,172"/><polygon fill="#36A883" points="428,140 422,146 434,146"/><polygon fill="#36A883" points="428,144 420,152 436,152"/><polygon fill="#36A883" points="428,148 418,158 438,158"/><polygon fill="#238163" points="428,140 428,146 434,146"/><polygon fill="#238163" points="426,146 424,148 428,148 428,152 436,152 430,146"/><polygon fill="#238163" points="428,152 424,152 422,154 428,154 428,158 438,158 432,152"/><polygon fill="#238163" points="428,158 422,158 420,160 428,160 428,164 440,164 434,158"/><polygon fill="#238163" points="434,164 422,164 420,166 428,166 428,172 442,172"/><rect x="426" y="172" fill="#D77228" width="4" height="8"/><polygon fill="#A0551F" points="426,172 428,174 428,180 430,180 430,172"/><polygon fill="#36A883" points="308,144 296,156 320,156"/><polygon fill="#36A883" points="308,150 294,164 322,164"/><polygon fill="#36A883" points="308,156 292,172 324,172"/><polygon fill="#36A883" points="308,132 302,138 314,138"/><polygon fill="#36A883" points="308,136 300,144 316,144"/><polygon fill="#36A883" points="308,140 298,150 318,150"/><polygon fill="#238163" points="308,132 308,138 314,138"/><polygon fill="#238163" points="306,138 304,140 308,140 308,144 316,144 310,138"/><polygon fill="#238163" points="308,144 304,144 302,146 308,146 308,150 318,150 312,144"/><polygon fill="#238163" points="308,150 302,150 300,152 308,152 308,156 320,156 314,150"/><polygon fill="#238163" points="314,156 302,156 300,158 308,158 308,164 322,164"/><polygon fill="#238163" points="316,164 300,164 298,166 308,166 308,172 324,172"/><rect x="306" y="172" fill="#D77228" width="4" height="8"/><polygon fill="#A0551F" points="306,172 308,174 308,180 310,180 310,172"/><polygon fill="#36A883" points="224,154 218,160 230,160"/><polygon fill="#36A883" points="224,158 216,166 232,166"/><polygon fill="#36A883" points="224,162 214,172 234,172"/><polygon fill="#238163" points="224,154 224,160 230,160"/><polygon fill="#238163" points="222,160 220,162 224,162 224,166 232,166 226,160"/><polygon fill="#238163" points="224,166 220,166 218,168 224,168 224,172 234,172 228,166"/><polygon fill="#238163" points="218,172 220,170 220,172"/><rect x="222" y="172" fill="#D77228" width="4" height="8"/><polygon fill="#A0551F" points="222,172 224,174 224,180 226,180 226,172"/><polygon fill="#36A883" points="70,154 64,160 76,160"/><polygon fill="#36A883" points="70,158 62,166 78,166"/><polygon fill="#36A883" points="70,162 60,172 80,172"/><polygon fill="#238163" points="70,154 70,160 76,160"/><polygon fill="#238163" points="68,160 66,162 70,162 70,166 78,166 72,160"/><polygon fill="#238163" points="70,166 66,166 64,168 70,168 70,172 80,172 74,166"/><polygon fill="#238163" points="64,172 66,170 66,172"/><rect x="68" y="172" fill="#D77228" width="4" height="8"/><polygon fill="#A0551F" points="68,172 70,174 70,180 72,180 72,172"/><polygon fill="#36A883" points="48,150 42,156 54,156"/><polygon fill="#36A883" points="48,154 40,162 56,162"/><polygon fill="#36A883" points="48,158 38,168 58,168"/><polygon fill="#36A883" points="48,162 36,174 60,174"/><polygon fill="#238163" points="48,150 48,156 54,156"/><polygon fill="#238163" points="46,156 44,158 48,158 48,162 56,162 50,156"/><polygon fill="#238163" points="48,162 44,162 42,164 48,164 48,168 58,168 52,162"/><polygon fill="#238163" points="42,168 44,166 44,168"/><rect x="46" y="174" fill="#D77228" width="4" height="6"/><polygon fill="#238163" points="42,168 54,168 60,174 48,174 48,170 40,170"/><polygon fill="#A0551F" points="46,174 48,176 48,180 50,180 50,174"/></svg>