<svg xmlns="http://www.w3.org/2000/svg" viewBox="0 0 1117 832" enable-background="new 0 0 1117 832"><circle fill="#176973" cx="778.636" cy="787.221" r="3.783"/><circle fill="#176973" cx="498.656" cy="647.231" r="3.783"/><circle fill="#176973" cx="661.347" cy="314.283" r="3.783"/><circle fill="#176973" cx="25.719" cy="147.809" r="3.783"/><circle fill="#176973" cx="1092.667" cy="136.458" r="3.784"/><path fill="#176973" d="M320.832 484.54c0 2.091-1.694 3.785-3.784 3.785s-3.784-1.694-3.784-3.785c0-2.086 1.694-3.784 3.784-3.784s3.784 1.698 3.784 3.784z"/><circle fill="#176973" cx="411.636" cy="768.303" r="3.784"/><circle fill="#176973" cx="1013.213" cy="488.325" r="3.783"/><circle fill="#176973" cx="1066.182" cy="306.716" r="3.783"/><circle fill="#176973" cx="82.47" cy="446.705" r="3.783"/><circle fill="#176973" cx="990.512" cy="719.117" r="3.784"/><circle fill="#176973" cx="472.172" cy="363.469" r="3.783"/><circle fill="#176973" cx="835.389" cy="91.057" r="3.783"/><circle fill="#176973" cx="165.708" cy="249.964" r="3.784"/><path fill="#176973" d="M895.925 567.777c0 2.092-1.693 3.782-3.784 3.782-2.089 0-3.782-1.69-3.782-3.782 0-2.088 1.693-3.783 3.782-3.783 2.09 0 3.784 1.695 3.784 3.783z"/><circle fill="#176973" cx="131.656" cy="635.881" r="3.784"/><circle fill="#3F436C" cx="508.115" cy="811.813" r="1.892"/><circle fill="#3F436C" cx="544.058" cy="717.226" r="1.892"/><circle fill="#3F436C" cx="237.594" cy="685.066" r="1.892"/><circle fill="#3F436C" cx="214.893" cy="461.841" r="1.891"/><circle fill="#3F436C" cx="417.311" cy="232.938" r="1.892"/><circle fill="#3F436C" cx="1001.862" cy="5.927" r="1.892"/><circle fill="#3F436C" cx="841.064" cy="681.282" r="1.892"/><circle fill="#3F436C" cx="689.724" cy="503.458" r="1.892"/><circle fill="#3F436C" cx="916.734" cy="374.819" r="1.892"/><circle fill="#3F436C" cx="786.203" cy="422.113" r="1.892"/><circle fill="#3F436C" cx="950.785" cy="212.128" r="1.892"/><circle fill="#3F436C" cx="528.925" cy="41.871" r="1.892"/><circle fill="#3F436C" cx="343.533" cy="119.432" r="1.892"/><circle fill="#3F436C" cx="122.198" cy="819.381" r="1.892"/><path fill="#3F436C" d="M1022.673 666.149c0 1.045-.848 1.89-1.894 1.89-1.045 0-1.891-.845-1.891-1.89 0-1.047.846-1.893 1.891-1.893 1.046.001 1.894.847 1.894 1.893z"/><circle fill="#3F436C" cx="37.069" cy="728.577" r="1.892"/><circle fill="#3F436C" cx="920.518" cy="823.163" r="1.892"/><circle fill="#3F436C" cx="525.141" cy="452.382" r="1.892"/><circle fill="#3F436C" cx="65.445" cy="284.015" r="1.892"/><circle fill="#3F436C" cx="209.218" cy="144.025" r="1.891"/><g stroke="#A0551F" stroke-miterlimit="10" fill="none"><line x1="1051.048" y1="783.438" x2="1045.699" y2="788.787"/><line x1="1045.699" y1="783.438" x2="1051.048" y2="788.787"/></g><g stroke="#A0551F" stroke-miterlimit="10" fill="none"><line x1="755.935" y1="647.231" x2="750.585" y2="652.58"/><line x1="750.585" y1="647.231" x2="755.935" y2="652.58"/></g><g stroke="#A0551F" stroke-miterlimit="10" fill="none"><line x1="1105.584" y1="373.252" x2="1100.234" y2="378.603"/><line x1="1100.234" y1="373.252" x2="1105.584" y2="378.603"/></g><g stroke="#A0551F" stroke-miterlimit="10" fill="none"><line x1="647.779" y1="176.51" x2="642.429" y2="181.861"/><line x1="642.429" y1="176.51" x2="647.779" y2="181.861"/></g><g stroke="#A0551F" stroke-miterlimit="10" fill="none"><line x1="367.8" y1="594.262" x2="362.45" y2="599.612"/><line x1="362.45" y1="594.262" x2="367.8" y2="599.612"/></g><g stroke="#A0551F" stroke-miterlimit="10" fill="none"><line x1="137.006" y1="730.469" x2="131.656" y2="735.818"/><line x1="131.656" y1="730.469" x2="137.006" y2="735.818"/></g><g stroke="#A0551F" stroke-miterlimit="10" fill="none"><line x1="12.151" y1="594.262" x2="6.801" y2="599.612"/><line x1="6.801" y1="594.262" x2="12.151" y2="599.612"/></g><g stroke="#A0551F" stroke-miterlimit="10" fill="none"><line x1="324.615" y1="361.903" x2="319.266" y2="367.252"/><line x1="319.266" y1="361.903" x2="324.615" y2="367.252"/></g><g stroke="#A0551F" stroke-miterlimit="10" fill="none"><line x1="585.677" y1="537.509" x2="580.327" y2="542.859"/><line x1="580.327" y1="537.509" x2="585.677" y2="542.859"/></g><g stroke="#A0551F" stroke-miterlimit="10" fill="none"><line x1="821.82" y1="290.016" x2="816.471" y2="295.366"/><line x1="816.471" y1="290.016" x2="821.82" y2="295.366"/></g><g stroke="#A0551F" stroke-miterlimit="10" fill="none"><line x1="158.142" y1="15.386" x2="152.791" y2="20.736"/><line x1="152.791" y1="15.386" x2="158.142" y2="20.736"/></g><line stroke="#A0551F" stroke-miterlimit="10" x1="308.373" y1="803.463" x2="303.022" y2="808.813" fill="none"/><line stroke="#A0551F" stroke-miterlimit="10" x1="303.022" y1="803.463" x2="308.373" y2="808.813" fill="none"/></svg>